<?xml version="1.0" encoding="UTF-8"?><svg id="a" xmlns="http://www.w3.org/2000/svg" viewBox="0 0 77.78 79.18"><rect x="0" y="0" width="77.78" height="79.18" style="fill:#ebbe1d;"/><path d="M67.37,17.48c-.59-.44-1.33-.55-2.05-.6-4.36-.28-8.74,1.67-11.44,5.08-.43.54-.93,1.06-1.42.89-.5-.17-.55-.94-.54-1.59.06-4.38-2.25-8.8-5.87-11.25-.62-.42-1.63-.84-2.47-.65-.4.1-.73.33-.93.68-.79,1.38,1.02,2.69,1.79,3.24,2.39,1.73,3.94,4.64,4.05,7.59,0,.22,0,.43-.09.58-.16.25-.53.29-.9.33h-.09c-2.16.23-4.17,1.54-5.25,3.44-1.01,1.8-1.15,4.04-.38,5.95-6.64.62-13.49,1.76-18.83,5.59-1.83,1.31-3.11,2.75-3.8,4.28-.22.48-.38.96-.48,1.49-.45,2.28.43,4.78,2.25,6.37,1.75,1.51,4.28,2.12,6.61,1.58l.33-.08c.78-.2,1.59-.4,2.17,0,.47.32.65.95.81,1.61l3.63,14.65c.25,1.01.71,2.39,1.89,2.65.14.03.27.05.4.05.77,0,1.49-.5,2.12-.99l11.46-8.99c.69-.55,1.43-1.07,2.21-.97.79.1,1.33.78,1.89,1.51.14.18.28.36.42.52,1.67,2,4.48,2.93,7.01,2.33,1.29-.31,2.48-1,3.44-2.01,1.04-1.08,1.68-2.34,1.79-3.47.1-1.28-.01-2.69-.33-4.2-.52-2.56-1.61-5.14-3.23-7.69-2.23-3.5-5.16-6.48-8.02-9.36,1.82-1,3.13-2.84,3.47-4.88.35-2.17-.4-4.46-1.98-6-.27-.26-.58-.56-.54-.86.02-.16.15-.31.28-.45,2.06-2.32,5.25-3.63,8.35-3.41.95.07,2.4.18,2.91-.88.37-.73-.04-1.63-.64-2.08ZM47.12,37.87l.15.06.02-.02c2.33.9,4.04,3.14,4.68,6.17.06.24-.02.49-.21.66-.18.17-.44.23-.68.16-1.81-.51-3.75-1.13-5.76-1.84h-.07c-2.06-.76-3.9-1.48-5.6-2.21-.23-.09-.39-.3-.42-.55-.04-.25.06-.49.25-.64,2.46-1.99,5.25-2.63,7.64-1.79ZM33.81,40.8l-.05.05c-.32.48-.63,1-.93,1.5-.92,1.54-1.88,3.14-3.38,4.05-1.34.81-3.01,1.01-4.6.56-1.09-.32-1.97-.92-2.45-1.69s-.58-1.59-.3-2.43c.83-2.43,4.81-4.69,7.13-5.55,2.11-.79,4.37-1.26,6.55-1.72.69-.15,1.37-.29,2.05-.44l.18-.04c.99-.23,2.01-.46,3.01-.46.02,0,.05,0,.07.01-2.19.95-4.2,2.41-5.85,4.29-.56.63-1.05,1.27-1.43,1.87ZM47.7,57.25c-2.04,1.82-4.35,3.19-5.97,4.03-.79-.41-1.6-.77-2.4-1.05-.82-.29-1.68-.53-2.71-.74-.73-1.67-1.67-4.19-2.11-6.92-.02-.15.07-.24.11-.27.04-.03.15-.1.3-.03,2.07.88,4.16,1.71,6.23,2.45h.07c2.03.74,4.17,1.42,6.35,2.03.16.05.2.17.22.23.01.05.02.17-.09.27ZM52.03,49.69c-.12.79-.35,1.64-.69,2.6-.08.25-.19.52-.31.77-.23.5-.82.77-1.36.63h-.04c-2.34-.63-4.78-1.39-7.27-2.27l-.07-.02c-2.52-.9-4.9-1.85-7.05-2.83-.51-.23-.79-.81-.66-1.35.05-.24.13-.51.24-.78.33-.94.69-1.74,1.11-2.46.23-.43.75-.61,1.2-.4,2.24,1,4.6,1.93,7,2.78h.07c2.39.87,4.79,1.63,7.15,2.26.48.13.78.59.68,1.07ZM56.03,41.51l.08.11c.42.54.86,1.07,1.29,1.6,1.41,1.75,2.88,3.55,4.03,5.51.9,1.53,3.03,6.1,2.03,8.8-.31.83-.9,1.4-1.76,1.69-.87.3-1.92.22-2.97-.23-1.49-.64-2.69-1.88-3.21-3.33-.6-1.67-.33-3.52-.08-5.31.09-.58.17-1.16.22-1.74.08-.73.1-1.51.06-2.4-.1-2.5-.73-4.91-1.85-7.04.82.64,1.5,1.5,2.16,2.34ZM55.51,29.93c-.19,1.81-1.66,3.58-3.5,4.22l-.2.06c-1.77.55-3.61.22-4.96-.89-1.67-1.38-2.36-3.88-1.64-5.96.64-1.83,2.03-2.36,3.44-2.36.97,0,1.95.25,2.69.51,1.92.66,4.43,1.84,4.17,4.42ZM19.8,63.91h8.71c.97,0,1.76-.79,1.76-1.76s-.79-1.75-1.76-1.75h-8.71c-.97,0-1.76.79-1.76,1.75s.79,1.76,1.76,1.76ZM31.49,66.36H11.37c-.97,0-1.75.79-1.75,1.76s.78,1.75,1.75,1.75h20.12c.96,0,1.75-.79,1.75-1.75s-.79-1.76-1.75-1.76Z" style="fill:#231f20;"/></svg>